<svg id="Layer_1" data-name="Layer 1" xmlns="http://www.w3.org/2000/svg" viewBox="0 0 57 41.55"><defs><style>.cls-1{fill:#707071;stroke:#707071;stroke-miterlimit:10;}</style></defs><path id="路径_1109" data-name="路径 1109" class="cls-1" d="M333.53,376.22H279.47a1,1,0,0,0-1,1h0v38.62a1,1,0,0,0,1,1h54.06a1,1,0,0,0,1-1V377.19a1,1,0,0,0-1-1Zm-1,11.52h-5.79v-9.58h5.79Zm-5.79,1.93h5.79v13.59h-5.79Zm-40.56,13.59h-5.79V389.67h5.79Zm0-25.1v9.58h-5.79v-9.58Zm-5.79,27h5.79v9.66h-5.79Zm7.72,9.66V378.16h36.69v36.68Zm38.62,0v-9.66h5.8v9.65Z" transform="translate(-278 -375.72)"/><path id="路径_1110" data-name="路径 1110" class="cls-1" d="M313.88,395.65l-13.8-7.91a1,1,0,0,0-1.33.36h0a1,1,0,0,0-.13.49v15.82a1,1,0,0,0,1,1h0a.89.89,0,0,0,.48-.13l13.8-7.91a1,1,0,0,0,.37-1.34h0A1,1,0,0,0,313.88,395.65Zm-13.3,7.07V390.28l10.85,6.22Z" transform="translate(-278 -375.72)"/></svg>