<?xml version="1.0" standalone="no"?><!DOCTYPE svg PUBLIC "-//W3C//DTD SVG 1.1//EN" "http://www.w3.org/Graphics/SVG/1.1/DTD/svg11.dtd"><svg t="1595915298272" class="icon" viewBox="0 0 1024 1024" version="1.1" xmlns="http://www.w3.org/2000/svg" p-id="2984" xmlns:xlink="http://www.w3.org/1999/xlink" width="200" height="200"><defs><style type="text/css"></style></defs><path d="M371.9 780.3l300.6-268.2-300.6-268.4v149.8H111.8v246.3h260.1v140.5z m540.3 93.9c-0.4 49.4-42.9 85.7-91.7 85.8H338.9c-48.8-0.1-91.4-36.4-91.7-85.8V672.1h52.1v202.1c0 16.7 15.9 33.5 39.7 33.6h481.6c23.8-0.1 39.6-17.1 39.7-33.6V149.8c0-16.7-15.9-33.5-39.7-33.6H338.9c-23.8 0.2-39.7 17.1-39.7 33.6v213.4h-52.1V149.8c0.4-49.4 42.9-85.7 91.7-85.8h481.6c48.8 0.1 91.3 36.4 91.7 85.8v724.5h0.1z" p-id="2985"></path></svg>