<svg id="Layer_1" data-name="Layer 1" xmlns="http://www.w3.org/2000/svg" viewBox="0 0 49.08 49.05"><defs><style>.cls-1{fill:#707071;stroke:#707071;stroke-width:0.5px;}</style></defs><path id="路径_1101" data-name="路径 1101" class="cls-1" d="M327.13,408.05,322,402.91a14.33,14.33,0,0,0-4-2.86l-.19-.09a12.72,12.72,0,0,1-1.64-.95V399a3.62,3.62,0,0,0-1.06-2.57,3.57,3.57,0,0,0-.37-.31l3.57-3.58a10.44,10.44,0,0,0,2.15.26h.13a10.27,10.27,0,0,0,10.24-10.31,10.14,10.14,0,0,0-.23-2.13,1.53,1.53,0,0,0-2.63-.76l-4.71,4.7-4.33-.19-.17-4.31,4.71-4.67a1.53,1.53,0,0,0-.77-2.63,10.25,10.25,0,0,0-12.16,12.25l-5.35,5.35-9.93-9.93a2.24,2.24,0,0,0-.86-2.18L289.2,374a2,2,0,0,0-2.63.17l-2.39,2.38a2,2,0,0,0-.17,2.63l3.93,5.13a2.29,2.29,0,0,0,1.67.89h.51l9.94,9.93-5.35,5.35a10.24,10.24,0,0,0-12.27,12.15,1.55,1.55,0,0,0,1.83,1.2,1.46,1.46,0,0,0,.78-.42l4.74-4.7,4.31.18.17,4.31-4.7,4.71a1.53,1.53,0,0,0-.09,2.16,1.47,1.47,0,0,0,.85.47,10.29,10.29,0,0,0,12.45-10v-.14a10.27,10.27,0,0,0-.26-2.14l3.57-3.58a3.48,3.48,0,0,0,2.9,1.44h0a13.62,13.62,0,0,1,1,1.65l.07.16a14.15,14.15,0,0,0,2.88,4.13l5.13,5.09a4.91,4.91,0,0,0,4.95,1.33,2.38,2.38,0,0,0,2.52-.57l2.36-2.36a2.36,2.36,0,0,0,.54-2.51A5,5,0,0,0,327.13,408.05ZM314.8,376.88a8,8,0,0,1,5.69-2.4h.26l-3.65,3.66a2.27,2.27,0,0,0-.67,1.72l.18,4.32a2.29,2.29,0,0,0,2.2,2.2l4.31.17a2.35,2.35,0,0,0,1.72-.67l3.65-3.65a7.94,7.94,0,0,1-2.34,5.89,7.83,7.83,0,0,1-5.74,2.35,8,8,0,0,1-5.69-2.48A8.05,8.05,0,0,1,314.8,376.88ZM286,378l2-2,4.93,3.77-3.18,3.17Zm6.06,5.88,1.84-1.83,9.65,9.65-1.83,1.83Zm6.12,32.26a8,8,0,0,1-5.89,2.34l3.62-3.65a2.35,2.35,0,0,0,.67-1.72l-.18-4.32a2.3,2.3,0,0,0-2.2-2.2l-4.31-.17a2.35,2.35,0,0,0-1.72.67l-3.65,3.65A8,8,0,1,1,298.33,416l-.19.2ZM299.62,403a9.85,9.85,0,0,0-2.44-1.71l14.16-14.2a10.09,10.09,0,0,0,4.52,4.5l-14.2,14.2A10,10,0,0,0,299.62,403Zm8.17-.06,5.25-5.25a1.54,1.54,0,0,1,.73,1.23,1.66,1.66,0,0,1,0,.32,1.34,1.34,0,0,1-.36.62l-3.5,3.5a1.32,1.32,0,0,1-1.88,0h0a1.27,1.27,0,0,1-.25-.42Zm18.48,10.79s.05.08,0,.12l-2.37,2.36c0,.05-.11,0-.12,0a1.13,1.13,0,0,0-1.11-.13,2.74,2.74,0,0,1-3-.59l-5.14-5.13a12,12,0,0,1-2.42-3.48l-.07-.16a15,15,0,0,0-.8-1.48,3.32,3.32,0,0,0,.28-.26l3.5-3.5c.09-.09.17-.19.25-.28a14.08,14.08,0,0,0,1.48.8l.18.08a12.11,12.11,0,0,1,3.47,2.42l5.12,5.13a2.73,2.73,0,0,1,.59,3A1.14,1.14,0,0,0,326.27,413.77Z" transform="translate(-281.96 -371.98)"/></svg>