<svg id="Layer_1" data-name="Layer 1" xmlns="http://www.w3.org/2000/svg" viewBox="0 0 89.01 100.54"><defs><style>.cls-1{fill:#fff;}.cls-2{fill:#1c7762;}.cls-3{fill:#afb0b3;}.cls-4{fill:#1a1818;}</style></defs><g id="组_710" data-name="组 710"><g id="组_684" data-name="组 684"><path id="路径_1130" data-name="路径 1130" class="cls-1" d="M69.23,67.58,61,63.92v36.62h9.88V68.15C70.33,68,69.78,67.76,69.23,67.58Z"/></g><g id="组_685" data-name="组 685"><path id="路径_1131" data-name="路径 1131" class="cls-2" d="M1.65,85.71v14.83H18.13V68.15C9,71.43,1.65,76.26,1.65,85.71Z"/></g><g id="组_686" data-name="组 686"><path id="路径_1132" data-name="路径 1132" class="cls-2" d="M70.87,68.15v32.39H87.36V85.71C87.35,76.26,80,71.43,70.87,68.15Z"/></g><g id="组_687" data-name="组 687"><path id="路径_1133" data-name="路径 1133" class="cls-2" d="M54.39,61,44.5,72.52,34.61,61,28,63.91v36.63H61V63.91Z"/></g><g id="组_688" data-name="组 688"><path id="路径_1134" data-name="路径 1134" class="cls-1" d="M19.78,67.58q-.83.27-1.65.57v32.39H28V63.92Z"/></g><g id="组_689" data-name="组 689"><path id="路径_1135" data-name="路径 1135" class="cls-1" d="M54.39,61V52.75H34.62V61L44.5,72.52Z"/></g><g id="组_690" data-name="组 690"><path id="路径_1136" data-name="路径 1136" class="cls-1" d="M62.63,26.37v8.25L61,36.26C61,44.5,56,56,44.5,56S28,44.5,28,36.26l-1.65-1.64V26.37Z"/></g><g id="组_691" data-name="组 691"><path id="路径_1137" data-name="路径 1137" class="cls-3" d="M64.28,21.43a19.78,19.78,0,1,0-39.55,0h-3.3c0,4.55,10.33,8.24,23.07,8.24S67.57,26,67.57,21.43Z"/></g><g id="组_692" data-name="组 692"><path id="路径_1138" data-name="路径 1138" class="cls-4" d="M89,100.54H85.7V85.71c0-7.64-5.08-12.6-17-16.57l-15-6.65a1.65,1.65,0,0,1-1-1.5V52.75H56v7.17L69.9,66.07C78.72,69,89,73.94,89,85.71Z"/></g><g id="组_693" data-name="组 693"><path id="路径_1139" data-name="路径 1139" class="cls-4" d="M3.3,100.54H0V85.71C0,73.94,10.29,69,19.26,66L33,59.92V52.75h3.3V61a1.64,1.64,0,0,1-1,1.5l-14.84,6.6c-12.06,4-17.15,9-17.15,16.62Z"/></g><g id="组_694" data-name="组 694"><rect id="矩形_696" data-name="矩形 696" class="cls-4" x="16.49" y="69.23" width="3.3" height="31.32"/></g><g id="组_695" data-name="组 695"><rect id="矩形_697" data-name="矩形 697" class="cls-4" x="69.23" y="69.23" width="3.3" height="31.32"/></g><g id="组_696" data-name="组 696"><path id="路径_1140" data-name="路径 1140" class="cls-4" d="M44.5,57.69C31.66,57.69,26.65,45.26,26.39,37l-1.18-1.18a1.64,1.64,0,0,1-.48-1.16v-3.3H28v2.61l1.16,1.17a1.61,1.61,0,0,1,.48,1.16c0,7,4,18.13,14.84,18.13S59.34,43.27,59.34,36.26a1.69,1.69,0,0,1,.48-1.16L61,33.93V31.32h3.3v3.3a1.65,1.65,0,0,1-.48,1.17L62.63,37C62.36,45.26,57.35,57.69,44.5,57.69Z"/></g><g id="组_697" data-name="组 697"><path id="路径_1141" data-name="路径 1141" class="cls-4" d="M44.5,74.17a1.65,1.65,0,0,1-1.25-.58L33.37,62.06l2.5-2.15L44.5,70l8.64-10.08,2.5,2.15L45.76,73.6A1.69,1.69,0,0,1,44.5,74.17Z"/></g><g id="组_698" data-name="组 698"><path id="路径_1142" data-name="路径 1142" class="cls-4" d="M44.5,31.32c-12,0-24.72-3.47-24.72-9.89h3.3c0,2.69,8.35,6.59,21.43,6.59s21.42-3.9,21.42-6.59h3.3C69.23,27.85,56.49,31.32,44.5,31.32Z"/></g><g id="组_699" data-name="组 699"><path id="路径_1143" data-name="路径 1143" class="cls-4" d="M65.93,21.43h-3.3a18.13,18.13,0,1,0-36.26-.27v.27h-3.3a21.43,21.43,0,1,1,42.85,0Z"/></g><g id="组_702" data-name="组 702"><g id="组_700" data-name="组 700"><path id="路径_1144" data-name="路径 1144" class="cls-4" d="M49.45,8.25h-3.3a6.6,6.6,0,0,1,6.6-6.6V5A3.3,3.3,0,0,0,49.45,8.25Z"/></g><g id="组_701" data-name="组 701"><rect id="矩形_698" data-name="矩形 698" class="cls-4" x="46.15" y="8.25" width="3.3" height="13.19"/></g></g><g id="组_705" data-name="组 705"><g id="组_703" data-name="组 703"><path id="路径_1145" data-name="路径 1145" class="cls-4" d="M42.86,8.25h-3.3A3.3,3.3,0,0,0,36.26,5h0V1.65a6.6,6.6,0,0,1,6.6,6.59Z"/></g><g id="组_704" data-name="组 704"><rect id="矩形_699" data-name="矩形 699" class="cls-4" x="39.56" y="8.25" width="3.3" height="13.19"/></g></g><g id="组_706" data-name="组 706"><rect id="矩形_700" data-name="矩形 700" class="cls-4" x="26.38" y="64.28" width="3.3" height="36.26"/></g><g id="组_707" data-name="组 707"><rect id="矩形_701" data-name="矩形 701" class="cls-4" x="59.34" y="64.28" width="3.3" height="36.26"/></g><g id="组_709" data-name="组 709"><rect id="矩形_703" data-name="矩形 703" class="cls-4" x="32.97" y="90.65" width="23.07" height="3.3"/></g></g></svg>