<svg id="Layer_1" data-name="Layer 1" xmlns="http://www.w3.org/2000/svg" viewBox="0 0 47 61"><defs><style>.cls-1{fill:#707071;}</style></defs><g id="组_630" data-name="组 630"><g id="组_629" data-name="组 629"><path id="路径_1102" data-name="路径 1102" class="cls-1" d="M317.31,393.25c-7.43-.71-9.55-4.82-9.69-5a1.21,1.21,0,0,0-1.12-.7h0a1.39,1.39,0,0,0-1.2.7c-.06.19-2.25,4.3-9.68,5a1.21,1.21,0,0,0-1.13,1.22v7.38c0,8.86,10.94,14.39,11.41,14.64a1.74,1.74,0,0,0,.6.13,1.79,1.79,0,0,0,.6-.13c.46-.25,11.41-5.78,11.41-14.64v-7.38A1.27,1.27,0,0,0,317.31,393.25Zm-5.24,7.64-5.77,5.59a1.66,1.66,0,0,1-2.39,0l-3-2.89a1.66,1.66,0,0,1,0-2.36l0,0a1.8,1.8,0,0,1,2.45,0l1.79,1.74,4.51-4.37a1.82,1.82,0,0,1,2.46,0,1.55,1.55,0,0,1,.07,2.18.86.86,0,0,1-.14.13Z" transform="translate(-283 -366.02)"/><path id="路径_1103" data-name="路径 1103" class="cls-1" d="M326.22,376.36h-4.7v3.92H326v42.83H287V380.28h4.24v-3.92h-4.44a3.76,3.76,0,0,0-3.78,3.73V423.3a3.75,3.75,0,0,0,3.78,3.72h39.44A3.75,3.75,0,0,0,330,423.3V380.09A3.76,3.76,0,0,0,326.22,376.36Z" transform="translate(-283 -366.02)"/><path id="路径_1104" data-name="路径 1104" class="cls-1" d="M295.57,381.63h21.6a1.49,1.49,0,0,0,1.53-1.43v-6a1.48,1.48,0,0,0-1.48-1.48h-3.63a7.24,7.24,0,0,0-14.44,0h-3.58a1.48,1.48,0,0,0-1.53,1.43v6a1.48,1.48,0,0,0,1.48,1.48Zm10.8-11.24a2.7,2.7,0,1,1-2.79,2.7,2.71,2.71,0,0,1,2.73-2.7Z" transform="translate(-283 -366.02)"/></g></g></svg>