<svg id="Layer_1" data-name="Layer 1" xmlns="http://www.w3.org/2000/svg" viewBox="0 0 47 61.58"><defs><style>.cls-1{fill:#707071;}</style></defs><g id="组_628" data-name="组 628"><path id="路径_1099" data-name="路径 1099" class="cls-1" d="M284.73,365.71h0a1.93,1.93,0,0,0-1.73,1.92v53.48s0,.08,0,.13a1.48,1.48,0,0,0,0,.19h0a6.25,6.25,0,0,0,6.2,5.85h38.83a1.92,1.92,0,0,0,1.93-1.92h0V367.63a1.92,1.92,0,0,0-1.93-1.92H284.73Zm2.12,3.85h39.3v45.25H289.23a6.07,6.07,0,0,0-2.38.49Zm8,6.14a1.93,1.93,0,0,0-1.73,1.91v13.1a1.92,1.92,0,0,0,1.91,1.94h23a1.93,1.93,0,0,0,1.92-1.93h0v-13.1A1.92,1.92,0,0,0,318,375.7H294.83Zm2.12,3.85h19.1v9.24H297Zm-7.73,39.12h36.93v4.77H289.23a2.34,2.34,0,0,1-2.38-2.3v-.08h0a2.33,2.33,0,0,1,2.29-2.38Z" transform="translate(-283 -365.71)"/></g></svg>