<svg id="Layer_1" data-name="Layer 1" xmlns="http://www.w3.org/2000/svg" viewBox="0 0 43.69 58.67"><defs><style>.cls-1,.cls-2{fill:#707071;}.cls-2{stroke:#787979;stroke-miterlimit:10;}</style></defs><g id="组_625" data-name="组 625"><path id="路径_1094" data-name="路径 1094" class="cls-1" d="M289,367.16a4.41,4.41,0,0,0-4.37,4.37v49.94a4.41,4.41,0,0,0,4.37,4.37h35a4.41,4.41,0,0,0,4.37-4.37V371.53a4.41,4.41,0,0,0-4.37-4.37Zm0,3.75h35a.58.58,0,0,1,.62.54v50a.58.58,0,0,1-.54.62H289a.58.58,0,0,1-.62-.54v-50a.58.58,0,0,1,.54-.62Zm5.62,17.48a3.12,3.12,0,1,0,3.12,3.12,3.12,3.12,0,0,0-3.12-3.12Zm8.11,1.24a1.88,1.88,0,0,0,0,3.75h16.86a1.88,1.88,0,0,0,0-3.75Zm-8.11,8.74a3.12,3.12,0,1,0,3.12,3.12h0A3.12,3.12,0,0,0,294.64,398.37Zm8.11,1.25a1.88,1.88,0,0,0-.08,3.75h16.94a1.88,1.88,0,0,0,.09-3.75H302.75Zm-8.11,8.74a3.13,3.13,0,1,0,3.12,3.12h0A3.12,3.12,0,0,0,294.64,408.36Zm8.11,1.25a1.87,1.87,0,0,0,0,3.74h16.86a1.87,1.87,0,0,0,0-3.74Z" transform="translate(-284.65 -367.16)"/><g id="组_624" data-name="组 624"><path id="路径_1095" data-name="路径 1095" class="cls-2" d="M307.65,387.26h-2.3a.35.35,0,0,1-.35-.35v-1.67a6.36,6.36,0,0,1-1.44-.63l-1.2,1.2a.34.34,0,0,1-.49,0l-1.62-1.62a.33.33,0,0,1-.1-.24.32.32,0,0,1,.1-.25l1.2-1.2a6.43,6.43,0,0,1-.63-1.45h-1.67a.34.34,0,0,1-.35-.35v-2.29a.35.35,0,0,1,.35-.35h1.67a6.36,6.36,0,0,1,.63-1.44l-1.2-1.2a.35.35,0,0,1,0-.5l1.62-1.62a.36.36,0,0,1,.49,0l1.2,1.2a6.67,6.67,0,0,1,1.45-.62V372.2a.35.35,0,0,1,.35-.35h2.29a.35.35,0,0,1,.35.35v1.68a6.36,6.36,0,0,1,1.44.63l1.2-1.2a.34.34,0,0,1,.49,0l1.62,1.62a.34.34,0,0,1,0,.49l-1.2,1.2a6.36,6.36,0,0,1,.63,1.44h1.68a.35.35,0,0,1,.35.35v2.29a.35.35,0,0,1-.35.35h-1.68a6.24,6.24,0,0,1-.63,1.45l1.2,1.2a.35.35,0,0,1,.1.25.31.31,0,0,1-.1.24l-1.62,1.62a.34.34,0,0,1-.49,0l-1.2-1.2a6.36,6.36,0,0,1-1.44.63v1.67A.35.35,0,0,1,307.65,387.26Zm-1.95-.7h1.6V385a.34.34,0,0,1,.26-.35,6.2,6.2,0,0,0,1.75-.76.34.34,0,0,1,.44,0l1.14,1.15,1.13-1.12-1.15-1.15a.34.34,0,0,1-.05-.43,5.68,5.68,0,0,0,.76-1.75.34.34,0,0,1,.35-.26h1.59v-1.59h-1.6a.34.34,0,0,1-.35-.26,6,6,0,0,0-.77-1.75.35.35,0,0,1,.05-.44l1.15-1.15-1.12-1.11-1.14,1.15a.36.36,0,0,1-.44,0,5.68,5.68,0,0,0-1.75-.76.34.34,0,0,1-.26-.35v-1.58H305.7v1.59a.34.34,0,0,1-.26.35,5.92,5.92,0,0,0-1.75.76.35.35,0,0,1-.44,0l-1.14-1.16L301,375.17l1.15,1.15a.36.36,0,0,1,0,.45,5.76,5.76,0,0,0-.76,1.74.34.34,0,0,1-.35.26h-1.58v1.6h1.59a.34.34,0,0,1,.35.26,5.76,5.76,0,0,0,.76,1.74.35.35,0,0,1,0,.44L301,384l1.12,1.12,1.15-1.15a.35.35,0,0,1,.45,0,5.76,5.76,0,0,0,1.74.76.34.34,0,0,1,.26.35Z" transform="translate(-284.65 -367.16)"/><path id="路径_1096" data-name="路径 1096" class="cls-2" d="M306.5,382.3a2.75,2.75,0,1,1,2.74-2.74h0A2.74,2.74,0,0,1,306.5,382.3Zm0-4.79a2.05,2.05,0,1,0,2.05,2.05,2.05,2.05,0,0,0-2.05-2.05Z" transform="translate(-284.65 -367.16)"/></g></g></svg>