<svg id="Layer_1" data-name="Layer 1" xmlns="http://www.w3.org/2000/svg" viewBox="0 0 89 99.59"><defs><style>.cls-1{opacity:0.9;}.cls-2{fill:#afb0b3;}.cls-3{fill:#fff;}.cls-4{fill:#1a1818;}.cls-5{fill:#fbaf58;}.cls-6{fill:#e41e26;}</style></defs><g id="组_741" data-name="组 741" class="cls-1"><g id="组_711" data-name="组 711"><path id="路径_1146" data-name="路径 1146" class="cls-2" d="M131.67,128.51V110.26c0-10.09-8.24-13.28-18.12-16.6,0,0-14.83-5-14.83-8.3H78.94c0,3.32-14.83,8.3-14.83,8.3C54.23,97,46,100.17,46,110.26v18.25Z" transform="translate(-44.33 -28.92)"/></g><g id="组_712" data-name="组 712"><path id="路径_1147" data-name="路径 1147" class="cls-3" d="M102.11,88.68,88.83,102,75.55,88.68l3.32-3.32H98.79Z" transform="translate(-44.33 -28.92)"/></g><g id="组_716" data-name="组 716"><g id="组_713" data-name="组 713"><path id="路径_1148" data-name="路径 1148" class="cls-3" d="M69.1,128.51H62.46V95.31L69.1,92Z" transform="translate(-44.33 -28.92)"/></g><g id="组_714" data-name="组 714"><rect id="矩形_704" data-name="矩形 704" class="cls-4" x="16.47" y="66.39" width="3.32" height="33.19"/></g><g id="组_715" data-name="组 715"><rect id="矩形_705" data-name="矩形 705" class="cls-4" x="23.11" y="63.07" width="3.32" height="36.51"/></g></g><g id="组_720" data-name="组 720"><g id="组_717" data-name="组 717"><path id="路径_1149" data-name="路径 1149" class="cls-3" d="M108.56,128.51h6.64V95.31L108.56,92Z" transform="translate(-44.33 -28.92)"/></g><g id="组_718" data-name="组 718"><rect id="矩形_706" data-name="矩形 706" class="cls-4" x="69.21" y="66.39" width="3.32" height="33.19"/></g><g id="组_719" data-name="组 719"><rect id="矩形_707" data-name="矩形 707" class="cls-4" x="62.57" y="63.07" width="3.32" height="36.51"/></g></g><g id="组_721" data-name="组 721"><path id="路径_1150" data-name="路径 1150" class="cls-4" d="M47.65,128.51H44.33V110.26c0-11.71,10.3-15.14,19.39-18.18C70.58,89.8,77,86.6,77.54,85.24l3.3.12c0,3.73-8.74,7.43-16.07,9.87-10.34,3.45-17.12,6.36-17.12,15Z" transform="translate(-44.33 -28.92)"/></g><g id="组_722" data-name="组 722"><path id="路径_1151" data-name="路径 1151" class="cls-4" d="M133.33,128.51H130V110.26c0-8.67-6.78-11.58-17.12-15-7.33-2.44-16.07-6.14-16.07-9.87h3.32a.5.5,0,0,0,0-.12c.5,1.36,7,4.56,13.82,6.85,9.09,3,19.39,6.46,19.39,18.17Z" transform="translate(-44.33 -28.92)"/></g><g id="组_734" data-name="组 734"><g id="组_723" data-name="组 723"><path id="路径_1152" data-name="路径 1152" class="cls-3" d="M107.11,43.87V72.08c0,8.3-6.64,16.6-18.26,16.6s-18.26-8.3-18.26-16.6V43.87Z" transform="translate(-44.33 -28.92)"/></g><g id="组_724" data-name="组 724"><path id="路径_1153" data-name="路径 1153" class="cls-5" d="M70.6,45.53v-8.3l-3.32-3.32V30.59h33.2a6.64,6.64,0,0,1,6.64,6.64h0V48.85l-8.3-3.32H82.22l-5-3.32-1.66,3.32Z" transform="translate(-44.33 -28.92)"/></g><g id="组_725" data-name="组 725"><path id="路径_1154" data-name="路径 1154" class="cls-4" d="M107.11,50.51a1.58,1.58,0,0,1-.61-.12l-8-3.2H82.21a1.71,1.71,0,0,1-.92-.28l-3.41-2.27-.82,1.63a1.65,1.65,0,0,1-1.48.92h-5a1.66,1.66,0,0,1-1.66-1.66h0V37.91L66.1,35.08a1.67,1.67,0,0,1-.48-1.18V30.58a1.66,1.66,0,0,1,1.66-1.66h33.2a8.32,8.32,0,0,1,8.3,8.3V48.85a1.67,1.67,0,0,1-1.66,1.66h0ZM82.72,43.87H98.81a1.67,1.67,0,0,1,.62.12l6,2.41V37.23a5,5,0,0,0-5-5H68.94v1l2.83,2.83a1.68,1.68,0,0,1,.49,1.18v6.64h2.29l1.2-2.4A1.65,1.65,0,0,1,78,40.73l.18.1Z" transform="translate(-44.33 -28.92)"/></g><g id="组_726" data-name="组 726"><path id="路径_1155" data-name="路径 1155" class="cls-5" d="M97.15,75.4l-3.32-6.64h-8.3L82.21,75.4s-11.62-5-11.62-16.6V72.08c0,8.3,6.64,16.6,18.26,16.6s18.26-8.3,18.26-16.6V58.8C107.11,70.42,97.15,75.4,97.15,75.4Z" transform="translate(-44.33 -28.92)"/></g><g id="组_727" data-name="组 727"><path id="路径_1156" data-name="路径 1156" class="cls-4" d="M97.15,77.06a1.64,1.64,0,0,1-1.48-.92l-2.86-5.72H86.56L83.7,76.14a1.66,1.66,0,0,1-2.14.79c-.51-.22-12.63-5.56-12.63-18.13h3.32c0,8.09,6.36,12.69,9.23,14.35L84.05,68a1.66,1.66,0,0,1,1.48-.92h8.3a1.67,1.67,0,0,1,1.49.92l2.51,5a17.2,17.2,0,0,0,7.62-14.24h3.32c0,12.5-10.43,17.86-10.87,18.09A1.75,1.75,0,0,1,97.15,77.06Z" transform="translate(-44.33 -28.92)"/></g><g id="组_728" data-name="组 728"><path id="路径_1157" data-name="路径 1157" class="cls-4" d="M88.85,90.34c-12.93,0-19.91-9.41-19.91-18.26V48.85h3.32V72.08c0,7.24,5.81,14.94,16.6,14.94s16.6-7.7,16.6-14.94V52.17h3.32V72.08C108.77,80.93,101.79,90.34,88.85,90.34Z" transform="translate(-44.33 -28.92)"/></g><g id="组_729" data-name="组 729"><path id="路径_1158" data-name="路径 1158" class="cls-4" d="M80.56,63.78a6.64,6.64,0,1,1,6.63-6.64A6.64,6.64,0,0,1,80.56,63.78Zm0-10a3.32,3.32,0,1,0,3.32,3.32A3.32,3.32,0,0,0,80.56,53.83Z" transform="translate(-44.33 -28.92)"/></g><g id="组_730" data-name="组 730"><path id="路径_1159" data-name="路径 1159" class="cls-4" d="M97.15,63.78a6.64,6.64,0,1,1,6.64-6.64A6.63,6.63,0,0,1,97.15,63.78Zm0-10a3.32,3.32,0,1,0,3.32,3.32A3.32,3.32,0,0,0,97.15,53.83Z" transform="translate(-44.33 -28.92)"/></g><g id="组_731" data-name="组 731"><rect id="矩形_708" data-name="矩形 708" class="cls-4" x="26.27" y="26.56" width="4.98" height="3.32"/></g><g id="组_732" data-name="组 732"><rect id="矩形_709" data-name="矩形 709" class="cls-4" x="57.8" y="26.56" width="4.98" height="3.32"/></g><g id="组_733" data-name="组 733"><rect id="矩形_710" data-name="矩形 710" class="cls-4" x="41.2" y="26.56" width="6.64" height="3.32"/></g></g><g id="组_735" data-name="组 735"><path id="路径_1160" data-name="路径 1160" class="cls-4" d="M88.83,103.62a1.66,1.66,0,0,1-1.17-.49L74.38,89.85l2.35-2.34,12.1,12.1,12.1-12.1,2.35,2.34L90,103.13A1.7,1.7,0,0,1,88.83,103.62Z" transform="translate(-44.33 -28.92)"/></g><g id="组_736" data-name="组 736"><path id="路径_1161" data-name="路径 1161" class="cls-6" d="M97.13,106.94l-8.3-5-8.3,5h-5V97h5l8.3,5,8.3-5h5v10Z" transform="translate(-44.33 -28.92)"/></g><g id="组_737" data-name="组 737"><path id="路径_1162" data-name="路径 1162" class="cls-4" d="M102.11,108.6h-5a1.7,1.7,0,0,1-.85-.24l-7.45-4.47-7.44,4.47a1.74,1.74,0,0,1-.86.24h-5a1.67,1.67,0,0,1-1.66-1.66h0V97a1.66,1.66,0,0,1,1.66-1.66h5a1.64,1.64,0,0,1,.86.24L88.83,100l7.45-4.46a1.58,1.58,0,0,1,.85-.24h5A1.66,1.66,0,0,1,103.77,97h0v10A1.66,1.66,0,0,1,102.11,108.6Zm-4.52-3.32h2.86V98.64H97.59L92.05,102Zm-20.38,0h2.86L85.6,102l-5.53-3.32H77.21Z" transform="translate(-44.33 -28.92)"/></g><g id="组_738" data-name="组 738"><rect id="矩形_711" data-name="矩形 711" class="cls-4" x="42.84" y="79.67" width="3.32" height="3.32"/></g><g id="组_739" data-name="组 739"><rect id="矩形_712" data-name="矩形 712" class="cls-4" x="42.84" y="86.31" width="3.32" height="3.32"/></g><g id="组_740" data-name="组 740"><rect id="矩形_713" data-name="矩形 713" class="cls-4" x="42.84" y="92.95" width="3.32" height="3.32"/></g></g></svg>